<svg width="302" height="85" version="1.1" xmlns="http://www.w3.org/2000/svg" desc="Created with imagetracer.js version 1.2.6" ><path fill="rgb(2,49,110)" stroke="rgb(2,49,110)" stroke-width="1" opacity="1" d="M 56.5 12 L 57.5 14 L 56.5 12 Z " /><path fill="rgb(2,49,110)" stroke="rgb(2,49,110)" stroke-width="1" opacity="1" d="M 33.5 14 L 31.5 17 L 33.5 14 Z " /><path fill="rgb(2,49,110)" stroke="rgb(2,49,110)" stroke-width="1" opacity="1" d="M 27.5 20 L 26.5 22 L 27.5 20 Z " /><path fill="rgb(2,49,110)" stroke="rgb(2,49,110)" stroke-width="1" opacity="1" d="M 42.5 20 L 46 20.5 L 42.5 21 L 42.5 20 Z " /><path fill="rgb(2,49,110)" stroke="rgb(2,49,110)" stroke-width="1" opacity="1" d="M 47.5 21 L 49.5 24 L 47.5 21 Z " /><path fill="rgb(2,49,110)" stroke="rgb(2,49,110)" stroke-width="1" opacity="1" d="M 232.5 22 L 233 27.5 L 232 27.5 L 232.5 22 Z " /><path fill="rgb(2,49,110)" stroke="rgb(2,49,110)" stroke-width="1" opacity="1" d="M 88.5 28 L 87.5 30 L 88.5 28 Z " /><path fill="rgb(2,49,110)" stroke="rgb(2,49,110)" stroke-width="1" opacity="1" d="M 112.5 28 Q 117 30 113.5 32 L 112 30.5 L 112.5 28 Z " /><path fill="rgb(2,49,110)" stroke="rgb(2,49,110)" stroke-width="1" opacity="1" d="M 122.5 28 L 123 46.5 L 122 46.5 L 122.5 28 Z " /><path fill="rgb(2,49,110)" stroke="rgb(2,49,110)" stroke-width="1" opacity="1" d="M 150.5 28 L 151.5 30 L 150.5 28 Z " /><path fill="rgb(2,49,110)" stroke="rgb(2,49,110)" stroke-width="1" opacity="1" d="M 170.5 28 L 171.5 30 L 170.5 28 Z " /><path fill="rgb(2,49,110)" stroke="rgb(2,49,110)" stroke-width="1" opacity="1" d="M 216.5 28 L 215.5 30 L 216.5 28 Z " /><path fill="rgb(2,49,110)" stroke="rgb(2,49,110)" stroke-width="1" opacity="1" d="M 230.5 28 L 231 30.5 L 230 30.5 L 230.5 28 Z " /><path fill="rgb(2,49,110)" stroke="rgb(2,49,110)" stroke-width="1" opacity="1" d="M 258.5 28 L 257.5 30 L 258.5 28 Z " /><path fill="rgb(2,49,110)" stroke="rgb(2,49,110)" stroke-width="1" opacity="1" d="M 23.5 29 L 24.5 31 L 23.5 29 Z " /><path fill="rgb(2,49,110)" stroke="rgb(2,49,110)" stroke-width="1" opacity="1" d="M 51.5 29 L 52 59.5 L 51 59.5 L 51.5 29 Z " /><path fill="rgb(2,49,110)" stroke="rgb(2,49,110)" stroke-width="1" opacity="1" d="M 145.5 29 L 148 29.5 L 145.5 30 L 145.5 29 Z " /><path fill="rgb(2,49,110)" stroke="rgb(2,49,110)" stroke-width="1" opacity="1" d="M 248.5 30 L 247.5 32 L 248.5 30 Z " /><path fill="rgb(2,49,110)" stroke="rgb(2,49,110)" stroke-width="1" opacity="1" d="M 166.5 31 L 167.5 33 L 166.5 31 Z " /><path fill="rgb(2,49,110)" stroke="rgb(2,49,110)" stroke-width="1" opacity="1" d="M 232.5 31 L 233 46.5 L 232 46.5 L 232.5 31 Z " /><path fill="rgb(2,49,110)" stroke="rgb(2,49,110)" stroke-width="1" opacity="1" d="M 88.5 32 L 87.5 34 L 86 33.5 L 88.5 32 Z " /><path fill="rgb(2,49,110)" stroke="rgb(2,49,110)" stroke-width="1" opacity="1" d="M 265.5 34 L 264.5 36 L 265.5 34 Z " /><path fill="rgb(2,49,110)" stroke="rgb(2,49,110)" stroke-width="1" opacity="1" d="M 95.5 35 L 94.5 37 L 95.5 35 Z " /><path fill="rgb(2,49,110)" stroke="rgb(2,49,110)" stroke-width="1" opacity="1" d="M 200.5 36 L 206 36.5 L 200.5 37 L 200.5 36 Z " /><path fill="rgb(2,49,110)" stroke="rgb(2,49,110)" stroke-width="1" opacity="1" d="M 258.5 38 L 256.5 41 L 258.5 38 Z " /><path fill="rgb(2,49,110)" stroke="rgb(2,49,110)" stroke-width="1" opacity="1" d="M 142.5 39 L 141.5 41 L 142.5 39 Z " /><path fill="rgb(2,49,110)" stroke="rgb(2,49,110)" stroke-width="1" opacity="1" d="M 218.5 39 L 219.5 41 L 218.5 39 Z " /><path fill="rgb(2,49,110)" stroke="rgb(2,49,110)" stroke-width="1" opacity="1" d="M 225.5 39 L 226.5 41 L 225.5 39 Z " /><path fill="rgb(2,49,110)" stroke="rgb(2,49,110)" stroke-width="1" opacity="1" d="M 262.5 39 L 261.5 41 L 262.5 39 Z " /><path fill="rgb(2,49,110)" stroke="rgb(2,49,110)" stroke-width="1" opacity="1" d="M 221.5 41 Q 224.5 41.5 224 45.5 L 223 45.5 L 221.5 41 Z " /><path fill="rgb(2,49,110)" stroke="rgb(2,49,110)" stroke-width="1" opacity="1" d="M 181.5 42 L 182 44.5 L 181 44.5 L 181.5 42 Z " /><path fill="rgb(2,49,110)" stroke="rgb(2,49,110)" stroke-width="1" opacity="1" d="M 260.5 45 L 261.5 47 L 260.5 45 Z " /><path fill="rgb(2,49,110)" stroke="rgb(2,49,110)" stroke-width="1" opacity="1" d="M 94.5 46 L 93.5 48 L 94.5 46 Z " /><path fill="rgb(2,49,110)" stroke="rgb(2,49,110)" stroke-width="1" opacity="1" d="M 113.5 46 L 114.5 48 L 112 47.5 L 113.5 46 Z " /><path fill="rgb(2,49,110)" stroke="rgb(2,49,110)" stroke-width="1" opacity="1" d="M 130.5 47 L 133 47.5 L 130 49.5 L 130.5 47 Z " /><path fill="rgb(2,49,110)" stroke="rgb(2,49,110)" stroke-width="1" opacity="1" d="M 148.5 47 L 151 47.5 L 148.5 48 L 148.5 47 Z " /><path fill="rgb(2,49,110)" stroke="rgb(2,49,110)" stroke-width="1" opacity="1" d="M 141.5 48 L 142.5 50 L 141.5 48 Z " /><path fill="rgb(2,49,110)" stroke="rgb(2,49,110)" stroke-width="1" opacity="1" d="M 185.5 48 L 184.5 50 L 185.5 48 Z " /><path fill="rgb(2,49,110)" stroke="rgb(2,49,110)" stroke-width="1" opacity="1" d="M 264.5 48 L 263.5 50 L 264.5 48 Z " /><path fill="rgb(2,49,110)" stroke="rgb(2,49,110)" stroke-width="1" opacity="1" d="M 104.5 52 L 108 54.5 L 105.5 53 L 104.5 52 Z " /><path fill="rgb(2,49,110)" stroke="rgb(2,49,110)" stroke-width="1" opacity="1" d="M 104.5 54 L 105.5 56 L 104.5 54 Z " /><path fill="rgb(2,49,110)" stroke="rgb(2,49,110)" stroke-width="1" opacity="1" d="M 115.5 54 L 113.5 57 L 115.5 54 Z " /><path fill="rgb(2,49,110)" stroke="rgb(2,49,110)" stroke-width="1" opacity="1" d="M 24.5 56 L 27 57.5 L 25.5 58 L 24.5 56 Z " /><path fill="rgb(2,49,110)" stroke="rgb(2,49,110)" stroke-width="1" opacity="1" d="M 28.5 62 L 29.5 64 L 28.5 62 Z " /><path fill="rgb(2,49,110)" stroke="rgb(2,49,110)" stroke-width="1" opacity="1" d="M 25.5 64 L 26.5 66 L 25.5 64 Z " /><path fill="rgb(2,49,110)" stroke="rgb(2,49,110)" stroke-width="1" opacity="1" d="M 24.5 66 L 25.5 68 L 24.5 66 Z " /><path fill="rgb(2,49,110)" stroke="rgb(2,49,110)" stroke-width="1" opacity="1" d="M 59.5 69 L 64 69.5 L 59.5 70 L 59.5 69 Z " /><path fill="rgb(224,228,231)" stroke="rgb(224,228,231)" stroke-width="1" opacity="1" d="M 32.5 14 L 31.5 16 L 32.5 14 Z " /><path fill="rgb(224,228,231)" stroke="rgb(224,228,231)" stroke-width="1" opacity="1" d="M 27.5 19 L 26.5 21 L 27.5 19 Z " /><path fill="rgb(224,228,231)" stroke="rgb(224,228,231)" stroke-width="1" opacity="1" d="M 232.5 21 L 238 21 L 238 26.5 L 239.5 27 L 239.5 28 L 237 26.5 Q 239.3 19.8 232.5 22 L 232.5 21 Z " /><path fill="rgb(224,228,231)" stroke="rgb(224,228,231)" stroke-width="1" opacity="1" d="M 47.5 22 L 49.5 25 L 47.5 22 Z " /><path fill="rgb(224,228,231)" stroke="rgb(224,228,231)" stroke-width="1" opacity="1" d="M 122.5 27 L 126 28.5 L 125.5 46 L 125 28 Q 121.7 28.8 122.5 27 Z " /><path fill="rgb(224,228,231)" stroke="rgb(224,228,231)" stroke-width="1" opacity="1" d="M 158.5 27 Q 163 26 164 28.5 L 162.5 28 Q 158 27.5 158 28.5 L 158 49.5 L 157 49.5 L 157 28.5 L 158.5 27 Z " /><path fill="rgb(224,228,231)" stroke="rgb(224,228,231)" stroke-width="1" opacity="1" d="M 170.5 27 L 171.5 29 L 170.5 27 Z " /><path fill="rgb(224,228,231)" stroke="rgb(224,228,231)" stroke-width="1" opacity="1" d="M 177.5 27 L 182 27.5 L 177 28 L 176.5 47 L 176 28.5 L 177.5 27 Z " /><path fill="rgb(224,228,231)" stroke="rgb(224,228,231)" stroke-width="1" opacity="1" d="M 186.5 27 L 192 27.5 L 186.5 28 L 186.5 27 Z " /><path fill="rgb(224,228,231)" stroke="rgb(224,228,231)" stroke-width="1" opacity="1" d="M 242.5 27 L 248 27.5 L 242.5 28 L 242.5 27 Z " /><path fill="rgb(224,228,231)" stroke="rgb(224,228,231)" stroke-width="1" opacity="1" d="M 87.5 28 L 86.5 30 L 87.5 28 Z " /><path fill="rgb(224,228,231)" stroke="rgb(224,228,231)" stroke-width="1" opacity="1" d="M 151.5 28 L 152.5 30 L 151.5 28 Z " /><path fill="rgb(224,228,231)" stroke="rgb(224,228,231)" stroke-width="1" opacity="1" d="M 197.5 28 L 196.5 30 L 197.5 28 Z " /><path fill="rgb(224,228,231)" stroke="rgb(224,228,231)" stroke-width="1" opacity="1" d="M 215.5 28 L 214.5 30 L 215.5 28 Z " /><path fill="rgb(224,228,231)" stroke="rgb(224,228,231)" stroke-width="1" opacity="1" d="M 257.5 28 L 256.5 30 L 257.5 28 Z " /><path fill="rgb(224,228,231)" stroke="rgb(224,228,231)" stroke-width="1" opacity="1" d="M 90.5 30 L 89.5 32 L 90.5 30 Z " /><path fill="rgb(224,228,231)" stroke="rgb(224,228,231)" stroke-width="1" opacity="1" d="M 111.5 30 L 112.5 32 L 111.5 30 Z " /><path fill="rgb(224,228,231)" stroke="rgb(224,228,231)" stroke-width="1" opacity="1" d="M 148.5 30 Q 150.8 30.8 150 34.5 L 149 34.5 L 148.5 30 Z " /><path fill="rgb(224,228,231)" stroke="rgb(224,228,231)" stroke-width="1" opacity="1" d="M 25.5 31 L 36 31.5 L 25.5 32 L 25.5 31 Z " /><path fill="rgb(224,228,231)" stroke="rgb(224,228,231)" stroke-width="1" opacity="1" d="M 237.5 32 L 238 44.5 L 237 44.5 L 237.5 32 Z " /><path fill="rgb(224,228,231)" stroke="rgb(224,228,231)" stroke-width="1" opacity="1" d="M 219.5 34 L 220.5 36 L 219.5 34 Z " /><path fill="rgb(224,228,231)" stroke="rgb(224,228,231)" stroke-width="1" opacity="1" d="M 94.5 35 L 93.5 37 L 94.5 35 Z " /><path fill="rgb(224,228,231)" stroke="rgb(224,228,231)" stroke-width="1" opacity="1" d="M 106.5 35 L 107 42.5 L 106 42.5 L 106.5 35 Z " /><path fill="rgb(224,228,231)" stroke="rgb(224,228,231)" stroke-width="1" opacity="1" d="M 222.5 36 L 223.5 38 L 222.5 36 Z " /><path fill="rgb(224,228,231)" stroke="rgb(224,228,231)" stroke-width="1" opacity="1" d="M 102.5 37 L 103 39.5 L 102 39.5 L 102.5 37 Z " /><path fill="rgb(224,228,231)" stroke="rgb(224,228,231)" stroke-width="1" opacity="1" d="M 142.5 38 L 140.5 41 L 142.5 38 Z " /><path fill="rgb(224,228,231)" stroke="rgb(224,228,231)" stroke-width="1" opacity="1" d="M 257.5 38 L 256.5 40 L 257.5 38 Z " /><path fill="rgb(224,228,231)" stroke="rgb(224,228,231)" stroke-width="1" opacity="1" d="M 262.5 40 L 261.5 42 L 262.5 40 Z " /><path fill="rgb(224,228,231)" stroke="rgb(224,228,231)" stroke-width="1" opacity="1" d="M 213.5 42 L 214 45.5 L 213 45.5 L 213.5 42 Z " /><path fill="rgb(224,228,231)" stroke="rgb(224,228,231)" stroke-width="1" opacity="1" d="M 221.5 42 L 222.5 44 L 221.5 42 Z " /><path fill="rgb(224,228,231)" stroke="rgb(224,228,231)" stroke-width="1" opacity="1" d="M 201.5 45 L 204 46.5 L 202.5 47 L 201.5 45 Z " /><path fill="rgb(224,228,231)" stroke="rgb(224,228,231)" stroke-width="1" opacity="1" d="M 99.5 47 L 101 49.5 L 97.5 51 L 97.5 50 Q 100.8 51.1 100 48.5 L 99.5 47 Z " /><path fill="rgb(224,228,231)" stroke="rgb(224,228,231)" stroke-width="1" opacity="1" d="M 95.5 48 L 94.5 50 L 95.5 48 Z " /><path fill="rgb(224,228,231)" stroke="rgb(224,228,231)" stroke-width="1" opacity="1" d="M 132.5 48 L 133 50 L 131 49.5 L 132.5 48 Z " /><path fill="rgb(224,228,231)" stroke="rgb(224,228,231)" stroke-width="1" opacity="1" d="M 140.5 48 L 141.5 50 L 140.5 48 Z " /><path fill="rgb(224,228,231)" stroke="rgb(224,228,231)" stroke-width="1" opacity="1" d="M 149.5 48 L 150.5 50 L 149.5 48 Z " /><path fill="rgb(224,228,231)" stroke="rgb(224,228,231)" stroke-width="1" opacity="1" d="M 209.5 48 L 208.5 50 L 209.5 48 Z " /><path fill="rgb(224,228,231)" stroke="rgb(224,228,231)" stroke-width="1" opacity="1" d="M 152.5 50 L 155 50.5 L 152.5 51 L 152.5 50 Z " /><path fill="rgb(224,228,231)" stroke="rgb(224,228,231)" stroke-width="1" opacity="1" d="M 235.5 50 L 239 50.5 L 235.5 51 L 235.5 50 Z " /><path fill="rgb(224,228,231)" stroke="rgb(224,228,231)" stroke-width="1" opacity="1" d="M 116.5 54 L 114.5 57 L 116.5 54 Z " /><path fill="rgb(224,228,231)" stroke="rgb(224,228,231)" stroke-width="1" opacity="1" d="M 104.5 55 L 105.5 57 L 104.5 55 Z " /><path fill="rgb(224,228,231)" stroke="rgb(224,228,231)" stroke-width="1" opacity="1" d="M 178.5 55 L 185 55.5 L 178.5 56 L 178.5 55 Z " /><path fill="rgb(224,228,231)" stroke="rgb(224,228,231)" stroke-width="1" opacity="1" d="M 186 55 L 189 55.5 L 189 65.5 L 188 65.5 L 187.5 56 L 186.5 66 L 186 55 Z " /><path fill="rgb(224,228,231)" stroke="rgb(224,228,231)" stroke-width="1" opacity="1" d="M 195.5 58 L 198 58.5 L 195.5 59 L 195.5 58 Z " /><path fill="rgb(224,228,231)" stroke="rgb(224,228,231)" stroke-width="1" opacity="1" d="M 219.5 58 L 222 58.5 L 219.5 59 L 219.5 58 Z " /><path fill="rgb(224,228,231)" stroke="rgb(224,228,231)" stroke-width="1" opacity="1" d="M 230.5 58 L 233 58.5 L 230.5 59 L 230.5 58 Z " /><path fill="rgb(224,228,231)" stroke="rgb(224,228,231)" stroke-width="1" opacity="1" d="M 237.5 58 L 240 58.5 L 237.5 59 L 237.5 58 Z " /><path fill="rgb(224,228,231)" stroke="rgb(224,228,231)" stroke-width="1" opacity="1" d="M 245.5 58 L 250 58.5 L 245.5 59 L 245.5 58 Z " /><path fill="rgb(224,228,231)" stroke="rgb(224,228,231)" stroke-width="1" opacity="1" d="M 252.5 58 Q 255.3 59.3 254 64.5 L 253 64.5 L 252.5 59 L 251.5 65 L 251 59.5 L 252.5 58 Z " /><path fill="rgb(224,228,231)" stroke="rgb(224,228,231)" stroke-width="1" opacity="1" d="M 257.5 58 Q 260.5 59.5 259 65.5 L 258 65.5 L 257.5 59 L 256.5 64 L 256 59.5 L 257.5 58 Z " /><path fill="rgb(224,228,231)" stroke="rgb(224,228,231)" stroke-width="1" opacity="1" d="M 263.5 58 L 265.5 59 L 269.5 58 L 269.5 59 L 264.5 60 L 263.5 58 Z " /><path fill="rgb(224,228,231)" stroke="rgb(224,228,231)" stroke-width="1" opacity="1" d="M 234.5 59 L 236 61.5 L 236 63.5 L 237.5 66 L 239 66.5 L 237.5 67 Q 235.8 63.9 234 65.5 L 235 63.5 L 234 60.5 L 234.5 59 Z " /><path fill="rgb(224,228,231)" stroke="rgb(224,228,231)" stroke-width="1" opacity="1" d="M 25 60 L 27 60.5 L 25.5 63 L 25 60 Z " /><path fill="rgb(224,228,231)" stroke="rgb(224,228,231)" stroke-width="1" opacity="1" d="M 184.5 60 L 185 62 L 180 61.5 L 184.5 60 Z " /><path fill="rgb(224,228,231)" stroke="rgb(224,228,231)" stroke-width="1" opacity="1" d="M 195.5 60 L 196.5 62 Q 193.7 62.7 195.5 60 Z " /><path fill="rgb(224,228,231)" stroke="rgb(224,228,231)" stroke-width="1" opacity="1" d="M 219.5 60 L 220.5 62 Q 217.7 62.7 219.5 60 Z " /><path fill="rgb(224,228,231)" stroke="rgb(224,228,231)" stroke-width="1" opacity="1" d="M 228.5 60 L 231 64.5 L 228 64.5 L 229 62.5 L 228.5 60 Z " /><path fill="rgb(224,228,231)" stroke="rgb(224,228,231)" stroke-width="1" opacity="1" d="M 230.5 60 L 233 60.5 Q 233.8 62.8 231.5 62 L 230.5 60 Z " /><path fill="rgb(224,228,231)" stroke="rgb(224,228,231)" stroke-width="1" opacity="1" d="M 239.5 60 L 238.5 62 L 237 61.5 L 239.5 60 Z " /><path fill="rgb(224,228,231)" stroke="rgb(224,228,231)" stroke-width="1" opacity="1" d="M 241.5 60 L 242 64.5 Q 240.5 67.5 239 64.5 L 241.5 60 Z " /><path fill="rgb(224,228,231)" stroke="rgb(224,228,231)" stroke-width="1" opacity="1" d="M 200.5 61 L 201 63.5 L 200 63.5 L 200.5 61 Z " /><path fill="rgb(224,228,231)" stroke="rgb(224,228,231)" stroke-width="1" opacity="1" d="M 202.5 61 L 203 64 L 205.5 63 L 204.5 65 L 202 63.5 L 202.5 61 Z " /><path fill="rgb(224,228,231)" stroke="rgb(224,228,231)" stroke-width="1" opacity="1" d="M 193.5 63 L 194 65.5 L 193 65.5 L 193.5 63 Z " /><path fill="rgb(224,228,231)" stroke="rgb(224,228,231)" stroke-width="1" opacity="1" d="M 217.5 63 L 218 65.5 L 217 65.5 L 217.5 63 Z " /><path fill="rgb(224,228,231)" stroke="rgb(224,228,231)" stroke-width="1" opacity="1" d="M 180.5 64 L 185 64.5 L 180.5 65 L 180.5 64 Z " /><path fill="rgb(224,228,231)" stroke="rgb(224,228,231)" stroke-width="1" opacity="1" d="M 245.5 64 L 248 64.5 L 245.5 65 L 245.5 64 Z " /><path fill="rgb(224,228,231)" stroke="rgb(224,228,231)" stroke-width="1" opacity="1" d="M 201.5 65 L 205 67.5 L 203.5 68 L 201.5 65 Z " /><path fill="rgb(224,228,231)" stroke="rgb(224,228,231)" stroke-width="1" opacity="1" d="M 230.5 66 L 233 66.5 L 230.5 67 L 230.5 66 Z " /><path fill="rgb(224,228,231)" stroke="rgb(224,228,231)" stroke-width="1" opacity="1" d="M 243.5 66 L 245 68.5 L 243 67.5 L 243.5 66 Z " /><path fill="rgb(224,228,231)" stroke="rgb(224,228,231)" stroke-width="1" opacity="1" d="M 207.5 67 L 206.5 69 L 207.5 67 Z " /><path fill="rgb(224,228,231)" stroke="rgb(224,228,231)" stroke-width="1" opacity="1" d="M 28.5 69 L 32 69.5 L 28.5 70 L 28.5 69 Z " /><path fill="rgb(254,254,254)" stroke="rgb(254,254,254)" stroke-width="1" opacity="1" d="M 45.5 9 L 50 9.5 L 45.5 10 L 45.5 9 Z " /><path fill="rgb(254,254,254)" stroke="rgb(254,254,254)" stroke-width="1" opacity="1" d="M 153.5 32 L 154 46.5 L 153 46.5 L 153.5 32 Z " /><path fill="rgb(254,254,254)" stroke="rgb(254,254,254)" stroke-width="1" opacity="1" d="M 163.5 34 L 164 51 L 157 50.5 L 163 50 L 163.5 34 Z " /><path fill="rgb(254,254,254)" stroke="rgb(254,254,254)" stroke-width="1" opacity="1" d="M 87.5 38 L 86.5 40 L 87.5 38 Z " /><path fill="rgb(254,254,254)" stroke="rgb(254,254,254)" stroke-width="1" opacity="1" d="M 215.5 38 L 216.5 40 L 215.5 38 Z " /><path fill="rgb(254,254,254)" stroke="rgb(254,254,254)" stroke-width="1" opacity="1" d="M 149.5 39 L 150 42.5 L 149 42.5 L 149.5 39 Z " /><path fill="rgb(254,254,254)" stroke="rgb(254,254,254)" stroke-width="1" opacity="1" d="M 182.5 44 L 184.5 45 L 186 44.5 L 183.5 46 L 182.5 44 Z " /><path fill="rgb(254,254,254)" stroke="rgb(254,254,254)" stroke-width="1" opacity="1" d="M 104.5 48 L 105.5 50 L 104.5 48 Z " /><path fill="rgb(254,254,254)" stroke="rgb(254,254,254)" stroke-width="1" opacity="1" d="M 196.5 48 L 197.5 50 L 196.5 48 Z " /><path fill="rgb(254,254,254)" stroke="rgb(254,254,254)" stroke-width="1" opacity="1" d="M 214.5 48 L 215.5 50 L 214.5 48 Z " /><path fill="rgb(254,254,254)" stroke="rgb(254,254,254)" stroke-width="1" opacity="1" d="M 227.5 48 L 226.5 50 L 227.5 48 Z " /><path fill="rgb(254,254,254)" stroke="rgb(254,254,254)" stroke-width="1" opacity="1" d="M 265.5 49 L 270.5 50 L 272 49.5 Q 272.6 52.3 266.5 51 L 265.5 49 Z " /><path fill="rgb(254,254,254)" stroke="rgb(254,254,254)" stroke-width="1" opacity="1" d="M 132.5 50 L 136 50.5 L 132.5 51 L 132.5 50 Z " /><path fill="rgb(254,254,254)" stroke="rgb(254,254,254)" stroke-width="1" opacity="1" d="M 167.5 50 L 173 50.5 L 167.5 51 L 167.5 50 Z " /><path fill="rgb(254,254,254)" stroke="rgb(254,254,254)" stroke-width="1" opacity="1" d="M 186.5 50 L 192 50.5 L 186.5 51 L 186.5 50 Z " /><path fill="rgb(254,254,254)" stroke="rgb(254,254,254)" stroke-width="1" opacity="1" d="M 242.5 50 L 248 50.5 L 242.5 51 L 242.5 50 Z " /><path fill="rgb(254,254,254)" stroke="rgb(254,254,254)" stroke-width="1" opacity="1" d="M 177.5 55 L 178 65.5 L 177 65.5 L 177.5 55 Z " /><path fill="rgb(254,254,254)" stroke="rgb(254,254,254)" stroke-width="1" opacity="1" d="M 194.5 58 L 194 59.5 L 195 61.5 L 193 62.5 L 193 60.5 L 194.5 58 Z " /><path fill="rgb(254,254,254)" stroke="rgb(254,254,254)" stroke-width="1" opacity="1" d="M 218.5 58 L 218 59.5 L 219 61.5 L 216.5 66 L 216 59 L 218.5 58 Z " /><path fill="rgb(254,254,254)" stroke="rgb(254,254,254)" stroke-width="1" opacity="1" d="M 244.5 58 L 243.5 60 L 244.5 58 Z " /><path fill="rgb(254,254,254)" stroke="rgb(254,254,254)" stroke-width="1" opacity="1" d="M 251.5 58 L 251 59.5 Q 249.7 64.3 252 65.5 L 250 66.5 Q 248.3 59.8 251.5 58 Z " /><path fill="rgb(254,254,254)" stroke="rgb(254,254,254)" stroke-width="1" opacity="1" d="M 208.5 59 L 210 65.5 L 208 64.5 L 208.5 59 Z " /><path fill="rgb(254,254,254)" stroke="rgb(254,254,254)" stroke-width="1" opacity="1" d="M 211.5 59 L 212 63.5 L 211 63.5 L 211.5 59 Z " /><path fill="rgb(254,254,254)" stroke="rgb(254,254,254)" stroke-width="1" opacity="1" d="M 271.5 60 L 272 65.5 L 271 65.5 L 271.5 60 Z " /><path fill="rgb(254,254,254)" stroke="rgb(254,254,254)" stroke-width="1" opacity="1" d="M 242.5 61 L 243 63.5 L 242 63.5 L 242.5 61 Z " /><path fill="rgb(254,254,254)" stroke="rgb(254,254,254)" stroke-width="1" opacity="1" d="M 262.5 61 L 263 65.5 L 262 65.5 L 262.5 61 Z " /><path fill="rgb(254,254,254)" stroke="rgb(254,254,254)" stroke-width="1" opacity="1" d="M 230.5 63 L 233 64.5 L 231.5 64 L 230.5 63 Z " /><path fill="rgb(255,255,255)" stroke="rgb(255,255,255)" stroke-width="1" opacity="1" d="M 0 0 L 301.5 0 L 302 0.5 L 302 85 L 0.5 85 L 0 84.5 L 0 0 Z M 46 9 L 38 11 L 29 16 L 22 29 L 23 31 L 25 32 L 36 32 L 37 25 L 43 21 L 47 22 L 49 25 L 51 31 L 51 64 L 52 67 L 57 70 Q 67 72 73 68 L 76 68 L 76 61 Q 70 62 67 59 L 65 55 L 65 22 L 63 18 L 55 10 L 46 9 Z M 232 21 L 232 27 L 230 27 Q 229 33 232 33 L 232 50 L 240 51 Q 241 46 238 45 L 238 33 L 240 32 Q 242 26 238 27 L 238 21 L 232 21 Z M 89 27 L 85 33 Q 84 36 89 34 L 90 32 L 93 30 Q 96 30 95 35 L 88 38 L 85 42 Q 84 48 86 50 L 89 51 Q 94 52 96 49 Q 97 52 101 51 Q 103 46 99 47 L 99 31 L 98 28 Q 95 26 89 27 Z M 107 27 L 104 30 L 102 36 L 102 42 L 104 49 L 108 51 L 114 50 L 112 54 Q 107 55 107 52 Q 102 50 103 55 L 108 58 L 115 57 L 118 53 L 118 27 L 114 28 Q 112 26 107 27 Z M 122 27 L 122 49 L 125 51 Q 130 53 132 50 L 136 51 L 136 28 L 132 27 L 132 45 L 130 47 L 126 47 L 126 27 L 122 27 Z M 144 27 L 141 28 L 140 34 L 144 34 Q 142 30 146 31 L 148 31 L 149 31 L 149 36 L 143 38 L 139 43 Q 139 49 143 51 Q 148 52 150 49 Q 151 52 155 51 L 154 47 Q 156 36 153 30 Q 151 25 144 27 Z M 157 27 L 157 51 L 164 51 L 164 34 Q 166 31 167 34 L 167 51 L 173 51 L 173 30 L 171 27 Q 165 26 164 28 L 157 27 Z M 176 27 L 176 47 L 177 50 L 180 51 Q 184 52 186 50 L 192 51 L 192 28 L 192 27 L 186 27 L 186 44 L 185 45 L 182 44 L 182 27 L 176 27 Z M 200 27 L 198 28 L 195 32 L 195 47 L 196 49 L 200 51 L 209 50 L 211 47 L 211 42 L 205 42 L 204 46 L 201 45 L 201 40 L 211 40 L 210 30 Q 208 25 200 27 Z M 217 27 L 213 32 L 215 39 L 221 42 Q 225 44 222 46 Q 217 47 219 42 L 213 42 L 214 49 L 218 51 L 227 50 L 229 47 L 228 41 L 222 36 L 219 32 L 223 34 L 223 35 L 228 35 L 227 28 Q 224 26 217 27 Z M 242 27 L 242 51 L 243 51 L 248 51 L 248 37 L 251 34 L 253 34 L 253 27 L 250 28 L 242 27 Z M 259 27 Q 254 29 255 35 L 261 35 L 261 32 L 264 31 L 265 34 L 255 41 Q 254 47 256 50 L 259 51 Q 263 52 265 50 L 272 51 L 271 49 L 271 32 L 270 30 L 268 27 L 259 27 Z M 29 44 L 29 47 L 22 60 L 23 67 L 29 70 L 35 69 L 38 65 L 37 57 L 31 47 Q 32 43 29 44 Z M 177 55 L 177 66 L 189 66 L 189 55 L 186 56 L 185 55 L 177 55 Z M 195 58 L 193 61 L 193 63 Q 192 66 195 67 L 200 66 L 201 66 L 200 68 Q 201 70 207 69 L 209 65 L 212 67 L 215 66 L 219 67 L 224 66 L 224 60 L 223 58 L 218 59 L 214 58 Q 215 63 213 65 L 212 60 L 210 58 L 208 58 Q 202 57 201 60 Q 200 57 195 58 Z M 231 58 L 228 59 L 229 63 L 228 66 L 231 67 L 234 66 L 240 67 L 243 65 L 243 69 L 250 69 L 252 66 L 254 67 L 259 66 L 259 58 L 256 58 Q 257 63 255 65 L 254 58 L 251 59 Q 249 57 245 58 L 243 61 L 240 58 L 237 59 L 231 58 Z M 260 58 L 260 66 L 263 66 L 264 60 L 266 61 L 266 62 L 264 62 L 264 66 L 267 67 L 272 66 Q 274 60 270 58 L 266 59 L 260 58 Z " /><path fill="rgb(255,255,255)" stroke="rgb(255,255,255)" stroke-width="1" opacity="1" d="M 108 31 Q 111.8 30 113 32.5 Q 115.5 36 114 43.5 L 111.5 47 Q 107.5 47.5 107 44.5 Q 105.6 34.9 108 31 Z " /><path fill="rgb(255,255,255)" stroke="rgb(255,255,255)" stroke-width="1" opacity="1" d="M 202.5 32 L 205 33.5 Q 206.2 38.1 201 36 L 202.5 32 Z " /><path fill="rgb(255,255,255)" stroke="rgb(255,255,255)" stroke-width="1" opacity="1" d="M 92.5 40 Q 96.7 38.7 95 43.5 L 92.5 47 L 89 45.5 Q 88.3 41.8 90.5 41 L 92.5 40 Z " /><path fill="rgb(255,255,255)" stroke="rgb(255,255,255)" stroke-width="1" opacity="1" d="M 147.5 40 Q 150.3 39.4 149 45.5 Q 147.8 48 144 47 L 143 44.5 L 145.5 41 L 147.5 40 Z " /><path fill="rgb(255,255,255)" stroke="rgb(255,255,255)" stroke-width="1" opacity="1" d="M 263.5 40 Q 266.9 39.1 265 44.5 L 262.5 46 L 261 43.5 L 263.5 40 Z " /><path fill="rgb(255,255,255)" stroke="rgb(255,255,255)" stroke-width="1" opacity="1" d="M 180 57 L 186 57 L 186 64 L 180 64 L 180 62 L 185 62 L 185 60 L 180 60 L 180 57 Z " /><path fill="rgb(255,255,255)" stroke="rgb(255,255,255)" stroke-width="1" opacity="1" d="M 203 60 Q 206.7 58.8 205 64 Q 201.3 65.2 203 60 Z " /><path fill="rgb(255,255,255)" stroke="rgb(255,255,255)" stroke-width="1" opacity="1" d="M 246.5 60 L 248 62.5 L 245.5 64 L 245 61.5 L 246.5 60 Z " /><path fill="rgb(255,255,255)" stroke="rgb(255,255,255)" stroke-width="1" opacity="1" d="M 26.5 61 L 29 64.5 L 27.5 65 Q 25 64 26.5 61 Z " /><path fill="rgb(255,255,255)" stroke="rgb(255,255,255)" stroke-width="1" opacity="1" d="M 237.5 63 Q 239.8 62.3 239 64.5 L 237.5 63 Z " /><path fill="rgb(255,255,255)" stroke="rgb(255,255,255)" stroke-width="1" opacity="1" d="M 267 63 L 269 63.5 L 267 64.5 L 267 63 Z " /><path fill="rgb(0,48,109)" stroke="rgb(0,48,109)" stroke-width="1" opacity="1" d="M 46.5 10 Q 56.9 10.1 61 16.5 L 64 22.5 L 64 55.5 L 68.5 61 L 75 62 L 75 67 L 71.5 67 Q 67.2 70.7 57.5 69 L 53 65.5 L 52 63.5 L 52 29.5 L 50 23.5 L 47.5 21 L 42.5 20 L 37 22 Q 34.3 25 35 31 L 25.5 31 L 23 28.5 L 30.5 17 L 38.5 12 L 46.5 10 Z " /><path fill="rgb(0,48,109)" stroke="rgb(0,48,109)" stroke-width="1" opacity="1" d="M 233 22 L 237 22 L 237 27.5 Q 240 26.8 239 31 L 237 31.5 L 237 45.5 Q 239.8 46.6 239 50 L 233 49 L 233 31.5 Q 230 32.3 231 28 L 233 28 L 233 22 Z " /><path fill="rgb(0,48,109)" stroke="rgb(0,48,109)" stroke-width="1" opacity="1" d="M 89.5 28 Q 95.5 26.5 97 29.5 L 98 31.5 L 98 48 Q 101 47 100 50 L 96 48.5 L 95.5 47 Q 94.5 51 88.5 50 Q 84.5 48.5 86 41.5 L 96 35.5 Q 97 31 94.5 30 L 91.5 29 L 89 30 L 87.5 33 L 86 32.5 L 89.5 28 Z M 95 38 L 89 40 L 88 47 Q 89 49 94 48 L 96 45 Q 97 37 95 38 Z " /><path fill="rgb(0,48,109)" stroke="rgb(0,48,109)" stroke-width="1" opacity="1" d="M 107.5 28 Q 113.5 27 114.5 31 L 115 28 L 117 28.5 L 117 51.5 L 112.5 57 Q 105.3 58.3 104 53.5 L 105.5 53 Q 106.8 56.3 112.5 55 Q 116.3 53.8 115 47.5 L 111.5 50 Q 106.4 50.6 105 47.5 L 103 36.5 L 105 30.5 L 107.5 28 Z M 109 30 L 106 33 L 106 46 Q 107 49 113 48 L 115 44 Q 117 35 114 32 Q 113 29 109 30 Z " /><path fill="rgb(0,48,109)" stroke="rgb(0,48,109)" stroke-width="1" opacity="1" d="M 123 28 L 125 28.5 L 125 48 L 130.5 48 L 133 45.5 L 133 28 L 135 28.5 L 135 50 Q 132 51.3 133 47.5 L 129.5 50 L 123 49 L 123 28 Z " /><path fill="rgb(0,48,109)" stroke="rgb(0,48,109)" stroke-width="1" opacity="1" d="M 144.5 28 Q 150.8 26.8 152 30.5 L 153 32.5 L 153 47.5 L 154 50 L 151 48.5 Q 151.8 46.3 149.5 47 L 150 45.5 L 150 38.5 L 148.5 38 L 143 41.5 L 142 44.5 L 143 48 L 149 48.5 L 143.5 50 Q 140.3 48.3 140 43.5 L 143.5 39 L 150 35.5 Q 151.3 29.4 148.5 30 L 145.5 29 L 143 33 Q 140.3 34.1 141 31.5 L 142 29 L 144.5 28 Z " /><path fill="rgb(0,48,109)" stroke="rgb(0,48,109)" stroke-width="1" opacity="1" d="M 158 28 L 162 28 Q 160.9 30.7 163.5 30 Q 164.5 27 169.5 28 L 172 30.5 L 172 50 L 168 49.5 L 168 32.5 L 164.5 31 L 163 32.5 L 163 50 L 158 49.5 L 158 28 Z " /><path fill="rgb(0,48,109)" stroke="rgb(0,48,109)" stroke-width="1" opacity="1" d="M 177 28 L 181 28.5 L 181 44.5 L 184.5 47 L 187 44.5 L 187 28 L 191 28.5 L 191 50 L 187 50 Q 188.1 47.3 185.5 48 Q 184.5 51 179.5 50 L 177 46.5 L 177 28 Z " /><path fill="rgb(0,48,109)" stroke="rgb(0,48,109)" stroke-width="1" opacity="1" d="M 199.5 28 Q 207.3 26.2 209 30.5 L 210 39 L 200 39 L 200 44.5 L 201 47 Q 204.8 48 206 45.5 Q 204.8 40.9 210 43 L 207.5 49 L 200.5 50 L 197 47.5 L 196 45.5 L 196 32.5 L 199.5 28 Z M 202 31 Q 199 32 200 37 L 206 37 L 206 33 Q 205 30 202 31 Z " /><path fill="rgb(0,48,109)" stroke="rgb(0,48,109)" stroke-width="1" opacity="1" d="M 217.5 28 Q 225.3 26.2 227 30.5 Q 228.5 35.8 224 34 L 222.5 31 Q 216.7 28.9 218 33.5 L 219 36 L 227 41.5 L 228 45.5 L 225.5 49 L 218.5 50 L 215 47.5 L 214 43 Q 219.2 40.9 218 45.5 Q 218.8 47.8 222.5 47 L 224 43.5 L 215 36.5 L 214 32.5 L 217.5 28 Z " /><path fill="rgb(0,48,109)" stroke="rgb(0,48,109)" stroke-width="1" opacity="1" d="M 243 28 Q 248.6 25.8 247 31.5 L 249 30.5 L 250.5 28 L 252 28 L 252 33 Q 248.2 32.3 247 35.5 L 247 49.5 L 243 50 L 243 28 Z " /><path fill="rgb(0,48,109)" stroke="rgb(0,48,109)" stroke-width="1" opacity="1" d="M 259.5 28 Q 266.3 27.1 269 29 L 270 31.5 L 270 50 L 264.5 48 Q 263.5 51 258.5 50 Q 254.5 48.5 256 41.5 L 266 34.5 Q 267.5 30.1 264.5 31 L 262.5 30 L 260 31 Q 261.6 35.9 256 34 L 259.5 28 Z M 265 38 L 263 39 Q 259 40 260 46 Q 261 48 265 47 L 266 45 Q 268 37 265 38 Z " /><path fill="rgb(0,48,109)" stroke="rgb(0,48,109)" stroke-width="1" opacity="1" d="M 29.5 47 L 37 59.5 L 37 63.5 L 33.5 68 L 28.5 69 L 24 65.5 L 23 59.5 L 29.5 47 Z M 25 57 L 25 65 Q 26 67 30 66 Q 31 62 27 61 Q 28 56 25 57 Z " /><path fill="rgb(120,136,161)" stroke="rgb(120,136,161)" stroke-width="1" opacity="1" d="M 58.5 13 L 60.5 16 L 58.5 13 Z " /><path fill="rgb(120,136,161)" stroke="rgb(120,136,161)" stroke-width="1" opacity="1" d="M 30.5 16 L 28.5 19 L 30.5 16 Z " /><path fill="rgb(120,136,161)" stroke="rgb(120,136,161)" stroke-width="1" opacity="1" d="M 37.5 23 L 36.5 25 L 37.5 23 Z " /><path fill="rgb(120,136,161)" stroke="rgb(120,136,161)" stroke-width="1" opacity="1" d="M 64.5 24 L 65 53.5 L 64 53.5 L 64.5 24 Z " /><path fill="rgb(120,136,161)" stroke="rgb(120,136,161)" stroke-width="1" opacity="1" d="M 90.5 27 L 95 27.5 L 90.5 28 L 90.5 27 Z " /><path fill="rgb(120,136,161)" stroke="rgb(120,136,161)" stroke-width="1" opacity="1" d="M 108.5 27 L 112 27.5 L 108.5 28 L 108.5 27 Z " /><path fill="rgb(120,136,161)" stroke="rgb(120,136,161)" stroke-width="1" opacity="1" d="M 144.5 27 L 149 27.5 L 144.5 28 L 144.5 27 Z " /><path fill="rgb(120,136,161)" stroke="rgb(120,136,161)" stroke-width="1" opacity="1" d="M 165.5 27 L 167 27.5 L 163.5 30 L 165.5 27 Z " /><path fill="rgb(120,136,161)" stroke="rgb(120,136,161)" stroke-width="1" opacity="1" d="M 251.5 27 Q 254.3 26.4 253 32.5 L 250.5 34 L 250.5 33 Q 253.9 33.9 252 28.5 L 251.5 27 Z " /><path fill="rgb(120,136,161)" stroke="rgb(120,136,161)" stroke-width="1" opacity="1" d="M 260.5 27 L 266 27.5 L 260.5 28 L 260.5 27 Z " /><path fill="rgb(120,136,161)" stroke="rgb(120,136,161)" stroke-width="1" opacity="1" d="M 35.5 28 L 36 30.5 L 35 30.5 L 35.5 28 Z " /><path fill="rgb(120,136,161)" stroke="rgb(120,136,161)" stroke-width="1" opacity="1" d="M 96.5 28 L 97.5 30 L 96.5 28 Z " /><path fill="rgb(120,136,161)" stroke="rgb(120,136,161)" stroke-width="1" opacity="1" d="M 117.5 28 L 118 50.5 L 117 50.5 L 117.5 28 Z " /><path fill="rgb(120,136,161)" stroke="rgb(120,136,161)" stroke-width="1" opacity="1" d="M 132.5 28 L 133 44.5 L 132 44.5 L 132.5 28 Z " /><path fill="rgb(120,136,161)" stroke="rgb(120,136,161)" stroke-width="1" opacity="1" d="M 135.5 28 L 136 49.5 L 135 49.5 L 135.5 28 Z " /><path fill="rgb(120,136,161)" stroke="rgb(120,136,161)" stroke-width="1" opacity="1" d="M 142.5 28 L 141.5 30 L 142.5 28 Z " /><path fill="rgb(120,136,161)" stroke="rgb(120,136,161)" stroke-width="1" opacity="1" d="M 181.5 28 L 182 41.5 L 181 41.5 L 181.5 28 Z " /><path fill="rgb(120,136,161)" stroke="rgb(120,136,161)" stroke-width="1" opacity="1" d="M 186.5 28 L 187 43.5 L 186 43.5 L 186.5 28 Z " /><path fill="rgb(120,136,161)" stroke="rgb(120,136,161)" stroke-width="1" opacity="1" d="M 191.5 28 L 192 49.5 L 191 49.5 L 191.5 28 Z " /><path fill="rgb(120,136,161)" stroke="rgb(120,136,161)" stroke-width="1" opacity="1" d="M 225.5 28 L 226.5 30 L 225.5 28 Z " /><path fill="rgb(120,136,161)" stroke="rgb(120,136,161)" stroke-width="1" opacity="1" d="M 239.5 28 L 240 30.5 L 237.5 32 L 237.5 31 Q 240.4 31.7 239.5 28 Z " /><path fill="rgb(120,136,161)" stroke="rgb(120,136,161)" stroke-width="1" opacity="1" d="M 242.5 28 L 243 49.5 L 242 49.5 L 242.5 28 Z " /><path fill="rgb(120,136,161)" stroke="rgb(120,136,161)" stroke-width="1" opacity="1" d="M 247.5 28 L 250 28.5 L 247 30.5 L 247.5 28 Z " /><path fill="rgb(120,136,161)" stroke="rgb(120,136,161)" stroke-width="1" opacity="1" d="M 268.5 28 L 269.5 30 L 268.5 28 Z " /><path fill="rgb(120,136,161)" stroke="rgb(120,136,161)" stroke-width="1" opacity="1" d="M 108.5 30 L 107.5 32 L 108.5 30 Z " /><path fill="rgb(120,136,161)" stroke="rgb(120,136,161)" stroke-width="1" opacity="1" d="M 144.5 30 L 144 31.5 L 143.5 33 L 143 31.5 L 144.5 30 Z " /><path fill="rgb(120,136,161)" stroke="rgb(120,136,161)" stroke-width="1" opacity="1" d="M 172.5 31 L 173 49.5 L 172 49.5 L 172.5 31 Z " /><path fill="rgb(120,136,161)" stroke="rgb(120,136,161)" stroke-width="1" opacity="1" d="M 219.5 31 L 219 32.5 L 218.5 34 L 218 32.5 L 219.5 31 Z " /><path fill="rgb(120,136,161)" stroke="rgb(120,136,161)" stroke-width="1" opacity="1" d="M 95.5 32 L 96 34.5 L 95 34.5 L 95.5 32 Z " /><path fill="rgb(120,136,161)" stroke="rgb(120,136,161)" stroke-width="1" opacity="1" d="M 98.5 32 L 99 46.5 L 98 46.5 L 98.5 32 Z " /><path fill="rgb(120,136,161)" stroke="rgb(120,136,161)" stroke-width="1" opacity="1" d="M 227.5 32 L 228 35 L 223 34.5 L 227 34 L 227.5 32 Z " /><path fill="rgb(120,136,161)" stroke="rgb(120,136,161)" stroke-width="1" opacity="1" d="M 255.5 32 L 256 34 L 260 34 L 260 32.5 L 261 32.5 L 259.5 35 Q 255.8 35.8 255 33.5 L 255.5 32 Z " /><path fill="rgb(120,136,161)" stroke="rgb(120,136,161)" stroke-width="1" opacity="1" d="M 270.5 32 L 271 48.5 L 270 48.5 L 270.5 32 Z " /><path fill="rgb(120,136,161)" stroke="rgb(120,136,161)" stroke-width="1" opacity="1" d="M 167.5 33 L 168 49.5 L 167 49.5 L 167.5 33 Z " /><path fill="rgb(120,136,161)" stroke="rgb(120,136,161)" stroke-width="1" opacity="1" d="M 195.5 33 L 196 43.5 L 195 43.5 L 195.5 33 Z " /><path fill="rgb(120,136,161)" stroke="rgb(120,136,161)" stroke-width="1" opacity="1" d="M 200.5 33 L 201 35.5 L 200 35.5 L 200.5 33 Z " /><path fill="rgb(120,136,161)" stroke="rgb(120,136,161)" stroke-width="1" opacity="1" d="M 205.5 33 L 206 35.5 L 205 35.5 L 205.5 33 Z " /><path fill="rgb(120,136,161)" stroke="rgb(120,136,161)" stroke-width="1" opacity="1" d="M 210.5 33 L 211 40 L 201 40 L 201 43.5 L 200 43.5 Q 199.3 39.8 201.5 39 L 210 39 L 210.5 33 Z " /><path fill="rgb(120,136,161)" stroke="rgb(120,136,161)" stroke-width="1" opacity="1" d="M 114.5 35 L 115 42.5 L 114 42.5 L 114.5 35 Z " /><path fill="rgb(120,136,161)" stroke="rgb(120,136,161)" stroke-width="1" opacity="1" d="M 149.5 35 L 148.5 37 L 149.5 35 Z " /><path fill="rgb(120,136,161)" stroke="rgb(120,136,161)" stroke-width="1" opacity="1" d="M 247.5 36 L 248 49.5 L 247 49.5 L 247.5 36 Z " /><path fill="rgb(120,136,161)" stroke="rgb(120,136,161)" stroke-width="1" opacity="1" d="M 215.5 37 L 217.5 40 L 215.5 37 Z " /><path fill="rgb(120,136,161)" stroke="rgb(120,136,161)" stroke-width="1" opacity="1" d="M 95.5 38 L 96 43.5 L 95 43.5 L 95.5 38 Z " /><path fill="rgb(120,136,161)" stroke="rgb(120,136,161)" stroke-width="1" opacity="1" d="M 265.5 38 L 266 43.5 L 265 43.5 L 265.5 38 Z " /><path fill="rgb(120,136,161)" stroke="rgb(120,136,161)" stroke-width="1" opacity="1" d="M 85.5 42 L 86 46.5 L 85 46.5 L 85.5 42 Z " /><path fill="rgb(120,136,161)" stroke="rgb(120,136,161)" stroke-width="1" opacity="1" d="M 88.5 42 L 89 45.5 L 88 45.5 L 88.5 42 Z " /><path fill="rgb(120,136,161)" stroke="rgb(120,136,161)" stroke-width="1" opacity="1" d="M 206.5 42 Q 210.3 41.3 211 43.5 L 210.5 45 L 210 43 L 206 43 L 206 44.5 L 205 44.5 L 206.5 42 Z " /><path fill="rgb(120,136,161)" stroke="rgb(120,136,161)" stroke-width="1" opacity="1" d="M 214.5 42 Q 218.3 41.3 219 43.5 L 220 46.5 L 218 45.5 Q 219.3 41.3 214.5 43 L 214.5 42 Z " /><path fill="rgb(120,136,161)" stroke="rgb(120,136,161)" stroke-width="1" opacity="1" d="M 255.5 42 L 256 46.5 L 255 46.5 L 255.5 42 Z " /><path fill="rgb(120,136,161)" stroke="rgb(120,136,161)" stroke-width="1" opacity="1" d="M 29 45 Q 32 44 31 47 Q 28 48 29 45 Z " /><path fill="rgb(120,136,161)" stroke="rgb(120,136,161)" stroke-width="1" opacity="1" d="M 125.5 46 L 126.5 48 L 125.5 46 Z " /><path fill="rgb(120,136,161)" stroke="rgb(120,136,161)" stroke-width="1" opacity="1" d="M 143.5 46 L 144.5 48 L 143.5 46 Z " /><path fill="rgb(120,136,161)" stroke="rgb(120,136,161)" stroke-width="1" opacity="1" d="M 214.5 46 L 217 49.5 L 214 47.5 L 214.5 46 Z " /><path fill="rgb(120,136,161)" stroke="rgb(120,136,161)" stroke-width="1" opacity="1" d="M 239.5 46 L 240 49.5 L 239 49.5 L 239.5 46 Z " /><path fill="rgb(120,136,161)" stroke="rgb(120,136,161)" stroke-width="1" opacity="1" d="M 95.5 47 L 93.5 50 L 95.5 47 Z " /><path fill="rgb(120,136,161)" stroke="rgb(120,136,161)" stroke-width="1" opacity="1" d="M 196.5 47 L 198.5 50 L 196.5 47 Z " /><path fill="rgb(120,136,161)" stroke="rgb(120,136,161)" stroke-width="1" opacity="1" d="M 227.5 47 L 225.5 50 L 227.5 47 Z " /><path fill="rgb(120,136,161)" stroke="rgb(120,136,161)" stroke-width="1" opacity="1" d="M 86.5 48 L 87.5 50 L 86.5 48 Z " /><path fill="rgb(120,136,161)" stroke="rgb(120,136,161)" stroke-width="1" opacity="1" d="M 105.5 48 L 106.5 50 L 105.5 48 Z " /><path fill="rgb(120,136,161)" stroke="rgb(120,136,161)" stroke-width="1" opacity="1" d="M 113.5 48 Q 116.1 47.2 115 50.5 L 114 50.5 L 113.5 49 L 112 49.5 L 113.5 48 Z " /><path fill="rgb(120,136,161)" stroke="rgb(120,136,161)" stroke-width="1" opacity="1" d="M 177.5 48 L 178.5 50 L 177.5 48 Z " /><path fill="rgb(120,136,161)" stroke="rgb(120,136,161)" stroke-width="1" opacity="1" d="M 256.5 48 L 257.5 50 L 256.5 48 Z " /><path fill="rgb(120,136,161)" stroke="rgb(120,136,161)" stroke-width="1" opacity="1" d="M 89.5 50 L 92 50.5 L 89.5 51 L 89.5 50 Z " /><path fill="rgb(120,136,161)" stroke="rgb(120,136,161)" stroke-width="1" opacity="1" d="M 125.5 50 L 129 50.5 L 125.5 51 L 125.5 50 Z " /><path fill="rgb(120,136,161)" stroke="rgb(120,136,161)" stroke-width="1" opacity="1" d="M 143.5 50 L 147 50.5 L 143.5 51 L 143.5 50 Z " /><path fill="rgb(120,136,161)" stroke="rgb(120,136,161)" stroke-width="1" opacity="1" d="M 180.5 50 L 183 50.5 L 180.5 51 L 180.5 50 Z " /><path fill="rgb(120,136,161)" stroke="rgb(120,136,161)" stroke-width="1" opacity="1" d="M 201.5 50 L 206 50.5 L 201.5 51 L 201.5 50 Z " /><path fill="rgb(120,136,161)" stroke="rgb(120,136,161)" stroke-width="1" opacity="1" d="M 219.5 50 L 223 50.5 L 219.5 51 L 219.5 50 Z " /><path fill="rgb(120,136,161)" stroke="rgb(120,136,161)" stroke-width="1" opacity="1" d="M 259.5 50 L 263 50.5 L 259.5 51 L 259.5 50 Z " /><path fill="rgb(120,136,161)" stroke="rgb(120,136,161)" stroke-width="1" opacity="1" d="M 178 56 L 185 56.5 L 180 57 Q 178.3 61.5 183.5 60 L 183.5 61 Q 177.8 59.4 180 65 L 185 65.5 L 178 66 L 178 56 Z " /><path fill="rgb(120,136,161)" stroke="rgb(120,136,161)" stroke-width="1" opacity="1" d="M 187.5 56 L 188 65.5 L 187 65.5 L 187.5 56 Z " /><path fill="rgb(120,136,161)" stroke="rgb(120,136,161)" stroke-width="1" opacity="1" d="M 108.5 57 L 112 57.5 L 108.5 58 L 108.5 57 Z " /><path fill="rgb(120,136,161)" stroke="rgb(120,136,161)" stroke-width="1" opacity="1" d="M 25 58 Q 28 57 27 60 Q 24 61 25 58 Z " /><path fill="rgb(120,136,161)" stroke="rgb(120,136,161)" stroke-width="1" opacity="1" d="M 66.5 58 L 67.5 60 L 66.5 58 Z " /><path fill="rgb(120,136,161)" stroke="rgb(120,136,161)" stroke-width="1" opacity="1" d="M 194 59 Q 198.6 57.8 200 60.5 L 200 66 L 194 66 Q 191.9 60.8 196.5 62 L 197.5 60 L 194.5 61 L 194 59 Z M 195 63 Q 194 66 198 65 Q 199 62 195 63 Z " /><path fill="rgb(120,136,161)" stroke="rgb(120,136,161)" stroke-width="1" opacity="1" d="M 202.5 59 L 208 59 L 208 66.5 Q 207.3 69.8 202.5 69 L 201 66.5 L 201 64.5 Q 200 60 202.5 59 Z M 204 60 L 202 62 L 204 65 L 206 64 Q 208 59 204 60 Z M 203 66 L 204 68 L 206 67 L 203 66 Z " /><path fill="rgb(120,136,161)" stroke="rgb(120,136,161)" stroke-width="1" opacity="1" d="M 209 59 L 211 59 L 211 65 L 214 65 L 214 59 L 216 59 L 216 66 L 210 66 L 209 59 Z " /><path fill="rgb(120,136,161)" stroke="rgb(120,136,161)" stroke-width="1" opacity="1" d="M 218 59 Q 222.6 57.8 224 60.5 L 224 66 L 218 66 Q 215.9 60.8 220.5 62 L 221.5 60 L 218.5 61 L 218 59 Z M 219 63 Q 218 66 222 65 Q 223 62 219 63 Z " /><path fill="rgb(120,136,161)" stroke="rgb(120,136,161)" stroke-width="1" opacity="1" d="M 229 59 L 234 59 L 234 60.5 L 232.5 60 L 230 60.5 L 234.5 63 L 236 59 Q 243.1 56.6 241 63 Q 235.8 61.3 237 65 L 240.5 64 L 239.5 66 L 236 64.5 L 235.5 63 L 233.5 66 Q 228.1 67.9 229 64.5 L 230.5 65 Q 234.3 66 233 63 L 229 61.5 L 229 59 Z M 237 60 L 237 62 L 240 61 L 237 60 Z " /><path fill="rgb(120,136,161)" stroke="rgb(120,136,161)" stroke-width="1" opacity="1" d="M 244.5 59 L 250 59 L 250 67.5 Q 249.3 69.8 245.5 69 L 244 67.5 L 243 60.5 L 244.5 59 Z M 245 60 L 245 65 L 248 65 L 248 60 L 245 60 Z M 246 66 L 248 68 Q 249 65 246 66 Z " /><path fill="rgb(120,136,161)" stroke="rgb(120,136,161)" stroke-width="1" opacity="1" d="M 252.5 59 L 253 65 L 257 63.5 L 257.5 59 L 258 66 L 252 66 L 252.5 59 Z " /><path fill="rgb(120,136,161)" stroke="rgb(120,136,161)" stroke-width="1" opacity="1" d="M 260 59 L 264 59.5 L 262 60 L 262 66 L 260 66 L 260 59 Z " /><path fill="rgb(120,136,161)" stroke="rgb(120,136,161)" stroke-width="1" opacity="1" d="M 266.5 59 L 271 59 L 271 66 L 265 66 L 265 62 L 269 60.5 L 267.5 60 L 265.5 61 L 266.5 59 Z M 266 63 Q 265 66 269 65 Q 270 62 266 63 Z " /><path fill="rgb(120,136,161)" stroke="rgb(120,136,161)" stroke-width="1" opacity="1" d="M 22.5 60 L 23 62.5 L 22 62.5 L 22.5 60 Z " /><path fill="rgb(120,136,161)" stroke="rgb(120,136,161)" stroke-width="1" opacity="1" d="M 37.5 60 L 38 62.5 L 37 62.5 L 37.5 60 Z " /><path fill="rgb(120,136,161)" stroke="rgb(120,136,161)" stroke-width="1" opacity="1" d="M 51.5 60 L 52 62.5 L 51 62.5 L 51.5 60 Z " /><path fill="rgb(120,136,161)" stroke="rgb(120,136,161)" stroke-width="1" opacity="1" d="M 72.5 61 L 76 62.5 Q 77 67 74.5 68 L 73 67.5 L 75 67 L 75 62 L 72.5 62 L 72.5 61 Z " /><path fill="rgb(120,136,161)" stroke="rgb(120,136,161)" stroke-width="1" opacity="1" d="M 29.5 64 L 28.5 66 L 27 65.5 L 29.5 64 Z " /><path fill="rgb(120,136,161)" stroke="rgb(120,136,161)" stroke-width="1" opacity="1" d="M 52.5 65 L 53.5 67 L 52.5 65 Z " /><path fill="rgb(120,136,161)" stroke="rgb(120,136,161)" stroke-width="1" opacity="1" d="M 34.5 67 L 33.5 69 L 34.5 67 Z " /></svg>